<mxfile host="app.diagrams.net" modified="2021-11-28T10:47:22.951Z" agent="5.0 (Macintosh; Intel Mac OS X 10_15_7) AppleWebKit/537.36 (KHTML, like Gecko) Chrome/96.0.4664.55 Safari/537.36" etag="IL96m4DeBMNQbiYuninW" version="15.8.6" type="github">
  <diagram id="C5RBs43oDa-KdzZeNtuy" name="Page-1">
    <mxGraphModel dx="1351" dy="800" grid="1" gridSize="10" guides="1" tooltips="1" connect="1" arrows="1" fold="1" page="1" pageScale="1" pageWidth="827" pageHeight="1169" math="0" shadow="0">
      <root>
        <mxCell id="WIyWlLk6GJQsqaUBKTNV-0" />
        <mxCell id="WIyWlLk6GJQsqaUBKTNV-1" parent="WIyWlLk6GJQsqaUBKTNV-0" />
        <mxCell id="hk-bhjeEYd5JpJ-YcEsF-23" value="&lt;blockquote style=&quot;margin: 0px 0px 0px 40px ; border: none ; padding: 0px ; line-height: 1.3&quot;&gt;&lt;br&gt;&lt;/blockquote&gt;" style="rounded=1;whiteSpace=wrap;html=1;fontSize=24;arcSize=3;align=center;fillColor=#f5f5f5;fontColor=#333333;strokeColor=#666666;" vertex="1" parent="WIyWlLk6GJQsqaUBKTNV-1">
          <mxGeometry x="160" y="40" width="610" height="560" as="geometry" />
        </mxCell>
        <mxCell id="hk-bhjeEYd5JpJ-YcEsF-52" value="" style="rounded=1;whiteSpace=wrap;html=1;fontSize=12;arcSize=3;fillColor=#f5f5f5;fontColor=#333333;strokeColor=#666666;" vertex="1" parent="WIyWlLk6GJQsqaUBKTNV-1">
          <mxGeometry x="896" y="40" width="1070" height="560" as="geometry" />
        </mxCell>
        <mxCell id="WIyWlLk6GJQsqaUBKTNV-5" value="Yes" style="edgeStyle=orthogonalEdgeStyle;rounded=0;html=1;jettySize=auto;orthogonalLoop=1;fontSize=11;endArrow=block;endFill=0;endSize=8;strokeWidth=1;shadow=0;labelBackgroundColor=none;" parent="WIyWlLk6GJQsqaUBKTNV-1" source="WIyWlLk6GJQsqaUBKTNV-6" target="WIyWlLk6GJQsqaUBKTNV-7" edge="1">
          <mxGeometry y="10" relative="1" as="geometry">
            <mxPoint as="offset" />
          </mxGeometry>
        </mxCell>
        <mxCell id="WIyWlLk6GJQsqaUBKTNV-6" value="Loop&lt;br&gt;Alive?" style="rhombus;whiteSpace=wrap;html=1;shadow=0;fontFamily=Helvetica;fontSize=12;align=center;strokeWidth=1;spacing=6;spacingTop=-4;fillColor=#fff2cc;strokeColor=#d6b656;" parent="WIyWlLk6GJQsqaUBKTNV-1" vertex="1">
          <mxGeometry x="1016" y="110" width="100" height="80" as="geometry" />
        </mxCell>
        <mxCell id="WIyWlLk6GJQsqaUBKTNV-7" value="Timer" style="rounded=1;whiteSpace=wrap;html=1;fontSize=12;glass=0;strokeWidth=1;shadow=0;fillColor=#f5f5f5;fontColor=#333333;strokeColor=#666666;" parent="WIyWlLk6GJQsqaUBKTNV-1" vertex="1">
          <mxGeometry x="1166" y="200" width="120" height="40" as="geometry" />
        </mxCell>
        <mxCell id="hk-bhjeEYd5JpJ-YcEsF-8" value="i" style="rounded=1;whiteSpace=wrap;html=1;" vertex="1" parent="WIyWlLk6GJQsqaUBKTNV-1">
          <mxGeometry x="1146" y="260" width="160" height="210" as="geometry" />
        </mxCell>
        <mxCell id="WIyWlLk6GJQsqaUBKTNV-9" value="Yes" style="edgeStyle=orthogonalEdgeStyle;rounded=0;html=1;jettySize=auto;orthogonalLoop=1;fontSize=11;endArrow=block;endFill=0;endSize=8;strokeWidth=1;shadow=0;labelBackgroundColor=none;entryX=0;entryY=0.5;entryDx=0;entryDy=0;" parent="WIyWlLk6GJQsqaUBKTNV-1" source="WIyWlLk6GJQsqaUBKTNV-10" target="WIyWlLk6GJQsqaUBKTNV-7" edge="1">
          <mxGeometry y="10" relative="1" as="geometry">
            <mxPoint as="offset" />
            <Array as="points">
              <mxPoint x="1116" y="220" />
            </Array>
          </mxGeometry>
        </mxCell>
        <mxCell id="WIyWlLk6GJQsqaUBKTNV-10" value="Loop&lt;br&gt;Alive?" style="rhombus;whiteSpace=wrap;html=1;shadow=0;fontFamily=Helvetica;fontSize=12;align=center;strokeWidth=1;spacing=6;spacingTop=-4;fillColor=#fff2cc;strokeColor=#d6b656;" parent="WIyWlLk6GJQsqaUBKTNV-1" vertex="1">
          <mxGeometry x="1016" y="260" width="100" height="80" as="geometry" />
        </mxCell>
        <mxCell id="WIyWlLk6GJQsqaUBKTNV-12" value="pending io callback" style="rounded=1;whiteSpace=wrap;html=1;fontSize=12;glass=0;strokeWidth=1;shadow=0;fillColor=#dae8fc;strokeColor=#6c8ebf;" parent="WIyWlLk6GJQsqaUBKTNV-1" vertex="1">
          <mxGeometry x="1166" y="280" width="120" height="40" as="geometry" />
        </mxCell>
        <mxCell id="hk-bhjeEYd5JpJ-YcEsF-1" value="" style="endArrow=classic;html=1;rounded=0;exitX=0.998;exitY=0.196;exitDx=0;exitDy=0;exitPerimeter=0;entryX=0;entryY=0.5;entryDx=0;entryDy=0;" edge="1" parent="WIyWlLk6GJQsqaUBKTNV-1" source="hk-bhjeEYd5JpJ-YcEsF-23" target="WIyWlLk6GJQsqaUBKTNV-6">
          <mxGeometry width="50" height="50" relative="1" as="geometry">
            <mxPoint x="936" y="169.5" as="sourcePoint" />
            <mxPoint x="1016" y="170" as="targetPoint" />
            <Array as="points">
              <mxPoint x="790" y="150" />
            </Array>
          </mxGeometry>
        </mxCell>
        <mxCell id="hk-bhjeEYd5JpJ-YcEsF-3" value="" style="endArrow=classic;html=1;rounded=0;exitX=0.5;exitY=1;exitDx=0;exitDy=0;entryX=0.5;entryY=0;entryDx=0;entryDy=0;" edge="1" parent="WIyWlLk6GJQsqaUBKTNV-1" source="WIyWlLk6GJQsqaUBKTNV-12" target="hk-bhjeEYd5JpJ-YcEsF-7">
          <mxGeometry width="50" height="50" relative="1" as="geometry">
            <mxPoint x="1246" y="310" as="sourcePoint" />
            <mxPoint x="1226" y="350" as="targetPoint" />
          </mxGeometry>
        </mxCell>
        <mxCell id="hk-bhjeEYd5JpJ-YcEsF-4" value="" style="endArrow=classic;html=1;rounded=0;exitX=0.5;exitY=1;exitDx=0;exitDy=0;entryX=0.5;entryY=0;entryDx=0;entryDy=0;" edge="1" parent="WIyWlLk6GJQsqaUBKTNV-1" source="WIyWlLk6GJQsqaUBKTNV-7" target="WIyWlLk6GJQsqaUBKTNV-12">
          <mxGeometry width="50" height="50" relative="1" as="geometry">
            <mxPoint x="1246" y="310" as="sourcePoint" />
            <mxPoint x="1296" y="260" as="targetPoint" />
          </mxGeometry>
        </mxCell>
        <mxCell id="hk-bhjeEYd5JpJ-YcEsF-5" value="No" style="endArrow=classic;html=1;rounded=0;exitX=0.5;exitY=1;exitDx=0;exitDy=0;" edge="1" parent="WIyWlLk6GJQsqaUBKTNV-1" source="WIyWlLk6GJQsqaUBKTNV-6">
          <mxGeometry x="-0.8667" y="10" width="50" height="50" relative="1" as="geometry">
            <mxPoint x="976" y="280" as="sourcePoint" />
            <mxPoint x="846" y="240" as="targetPoint" />
            <Array as="points">
              <mxPoint x="1066" y="240" />
            </Array>
            <mxPoint as="offset" />
          </mxGeometry>
        </mxCell>
        <mxCell id="hk-bhjeEYd5JpJ-YcEsF-6" value="" style="endArrow=classic;html=1;rounded=0;exitX=0.5;exitY=0;exitDx=0;exitDy=0;" edge="1" parent="WIyWlLk6GJQsqaUBKTNV-1" source="WIyWlLk6GJQsqaUBKTNV-10">
          <mxGeometry width="50" height="50" relative="1" as="geometry">
            <mxPoint x="1246" y="310" as="sourcePoint" />
            <mxPoint x="1066" y="220" as="targetPoint" />
          </mxGeometry>
        </mxCell>
        <mxCell id="hk-bhjeEYd5JpJ-YcEsF-13" value="No" style="edgeLabel;html=1;align=center;verticalAlign=middle;resizable=0;points=[];" vertex="1" connectable="0" parent="hk-bhjeEYd5JpJ-YcEsF-6">
          <mxGeometry x="-0.05" y="2" relative="1" as="geometry">
            <mxPoint x="-8" y="-1" as="offset" />
          </mxGeometry>
        </mxCell>
        <mxCell id="hk-bhjeEYd5JpJ-YcEsF-7" value="idle, prepare" style="rounded=1;whiteSpace=wrap;html=1;fontSize=12;glass=0;strokeWidth=1;shadow=0;" vertex="1" parent="WIyWlLk6GJQsqaUBKTNV-1">
          <mxGeometry x="1166" y="350" width="120" height="30" as="geometry" />
        </mxCell>
        <mxCell id="hk-bhjeEYd5JpJ-YcEsF-10" value="poll" style="rounded=1;whiteSpace=wrap;html=1;fontSize=12;glass=0;strokeWidth=1;shadow=0;fillColor=#d5e8d4;strokeColor=#82b366;" vertex="1" parent="WIyWlLk6GJQsqaUBKTNV-1">
          <mxGeometry x="1166" y="410" width="120" height="30" as="geometry" />
        </mxCell>
        <mxCell id="hk-bhjeEYd5JpJ-YcEsF-11" value="" style="endArrow=classic;html=1;rounded=0;exitX=0.5;exitY=1;exitDx=0;exitDy=0;entryX=0.5;entryY=0;entryDx=0;entryDy=0;" edge="1" parent="WIyWlLk6GJQsqaUBKTNV-1" source="hk-bhjeEYd5JpJ-YcEsF-7" target="hk-bhjeEYd5JpJ-YcEsF-10">
          <mxGeometry width="50" height="50" relative="1" as="geometry">
            <mxPoint x="1236" y="340" as="sourcePoint" />
            <mxPoint x="1226" y="410" as="targetPoint" />
          </mxGeometry>
        </mxCell>
        <mxCell id="hk-bhjeEYd5JpJ-YcEsF-12" value="io cycle" style="text;html=1;strokeColor=none;fillColor=none;align=center;verticalAlign=middle;whiteSpace=wrap;rounded=0;" vertex="1" parent="WIyWlLk6GJQsqaUBKTNV-1">
          <mxGeometry x="1236" y="260" width="60" height="20" as="geometry" />
        </mxCell>
        <mxCell id="hk-bhjeEYd5JpJ-YcEsF-15" value="exit callbacks" style="rounded=1;whiteSpace=wrap;html=1;fontSize=12;glass=0;strokeWidth=1;shadow=0;fillColor=#ffe6cc;strokeColor=#d79b00;" vertex="1" parent="WIyWlLk6GJQsqaUBKTNV-1">
          <mxGeometry x="916" y="240" width="80" height="30" as="geometry" />
        </mxCell>
        <mxCell id="hk-bhjeEYd5JpJ-YcEsF-16" value="check" style="rounded=1;whiteSpace=wrap;html=1;fontSize=12;glass=0;strokeWidth=1;shadow=0;fillColor=#e1d5e7;strokeColor=#9673a6;" vertex="1" parent="WIyWlLk6GJQsqaUBKTNV-1">
          <mxGeometry x="1166" y="490" width="120" height="30" as="geometry" />
        </mxCell>
        <mxCell id="hk-bhjeEYd5JpJ-YcEsF-17" value="" style="endArrow=classic;html=1;rounded=0;exitX=0.5;exitY=1;exitDx=0;exitDy=0;entryX=0.5;entryY=0;entryDx=0;entryDy=0;" edge="1" parent="WIyWlLk6GJQsqaUBKTNV-1" source="hk-bhjeEYd5JpJ-YcEsF-10" target="hk-bhjeEYd5JpJ-YcEsF-16">
          <mxGeometry width="50" height="50" relative="1" as="geometry">
            <mxPoint x="1206" y="400" as="sourcePoint" />
            <mxPoint x="1256" y="350" as="targetPoint" />
          </mxGeometry>
        </mxCell>
        <mxCell id="hk-bhjeEYd5JpJ-YcEsF-18" value="close callbacks" style="rounded=1;whiteSpace=wrap;html=1;fontSize=12;glass=0;strokeWidth=1;shadow=0;fillColor=#f8cecc;strokeColor=#b85450;" vertex="1" parent="WIyWlLk6GJQsqaUBKTNV-1">
          <mxGeometry x="1166" y="540" width="120" height="30" as="geometry" />
        </mxCell>
        <mxCell id="hk-bhjeEYd5JpJ-YcEsF-19" value="" style="endArrow=classic;html=1;rounded=0;exitX=0.5;exitY=1;exitDx=0;exitDy=0;entryX=0.5;entryY=0;entryDx=0;entryDy=0;" edge="1" parent="WIyWlLk6GJQsqaUBKTNV-1" source="hk-bhjeEYd5JpJ-YcEsF-16" target="hk-bhjeEYd5JpJ-YcEsF-18">
          <mxGeometry width="50" height="50" relative="1" as="geometry">
            <mxPoint x="1236" y="450" as="sourcePoint" />
            <mxPoint x="1236" y="500" as="targetPoint" />
          </mxGeometry>
        </mxCell>
        <mxCell id="hk-bhjeEYd5JpJ-YcEsF-20" value="" style="endArrow=classic;html=1;rounded=0;exitX=0;exitY=0.5;exitDx=0;exitDy=0;entryX=0.5;entryY=1;entryDx=0;entryDy=0;" edge="1" parent="WIyWlLk6GJQsqaUBKTNV-1" source="hk-bhjeEYd5JpJ-YcEsF-18" target="WIyWlLk6GJQsqaUBKTNV-10">
          <mxGeometry width="50" height="50" relative="1" as="geometry">
            <mxPoint x="1236" y="450" as="sourcePoint" />
            <mxPoint x="1236" y="500" as="targetPoint" />
            <Array as="points">
              <mxPoint x="1066" y="555" />
            </Array>
          </mxGeometry>
        </mxCell>
        <mxCell id="hk-bhjeEYd5JpJ-YcEsF-21" value="main.js" style="text;html=1;strokeColor=none;fillColor=none;align=center;verticalAlign=middle;whiteSpace=wrap;rounded=0;" vertex="1" parent="WIyWlLk6GJQsqaUBKTNV-1">
          <mxGeometry x="926" y="120" width="60" height="30" as="geometry" />
        </mxCell>
        <mxCell id="hk-bhjeEYd5JpJ-YcEsF-22" value="&lt;b&gt;&lt;font style=&quot;font-size: 24px&quot;&gt;LibUV&lt;/font&gt;&lt;/b&gt;" style="text;html=1;strokeColor=none;fillColor=none;align=center;verticalAlign=middle;whiteSpace=wrap;rounded=0;" vertex="1" parent="WIyWlLk6GJQsqaUBKTNV-1">
          <mxGeometry x="1350" y="50" width="60" height="30" as="geometry" />
        </mxCell>
        <mxCell id="hk-bhjeEYd5JpJ-YcEsF-25" value="" style="rounded=1;whiteSpace=wrap;html=1;fontSize=24;" vertex="1" parent="WIyWlLk6GJQsqaUBKTNV-1">
          <mxGeometry x="1456" y="240" width="180" height="270" as="geometry" />
        </mxCell>
        <mxCell id="hk-bhjeEYd5JpJ-YcEsF-26" value="&lt;font style=&quot;font-size: 16px&quot;&gt;&lt;b style=&quot;line-height: 0.5&quot;&gt;Internal C++ &lt;br&gt;Thread Pool&lt;/b&gt;&lt;/font&gt;" style="text;html=1;strokeColor=none;fillColor=none;align=center;verticalAlign=middle;whiteSpace=wrap;rounded=0;fontSize=24;" vertex="1" parent="WIyWlLk6GJQsqaUBKTNV-1">
          <mxGeometry x="1466" y="180" width="160" height="50" as="geometry" />
        </mxCell>
        <mxCell id="hk-bhjeEYd5JpJ-YcEsF-28" value="Thread 1" style="rounded=0;whiteSpace=wrap;html=1;fontSize=16;fillColor=#dae8fc;strokeColor=#6c8ebf;" vertex="1" parent="WIyWlLk6GJQsqaUBKTNV-1">
          <mxGeometry x="1486" y="255" width="120" height="30" as="geometry" />
        </mxCell>
        <mxCell id="hk-bhjeEYd5JpJ-YcEsF-29" value="Thread 2" style="rounded=0;whiteSpace=wrap;html=1;fontSize=16;fillColor=#dae8fc;strokeColor=#6c8ebf;" vertex="1" parent="WIyWlLk6GJQsqaUBKTNV-1">
          <mxGeometry x="1486" y="300" width="120" height="30" as="geometry" />
        </mxCell>
        <mxCell id="hk-bhjeEYd5JpJ-YcEsF-30" value="Thread 3" style="rounded=0;whiteSpace=wrap;html=1;fontSize=16;fillColor=#dae8fc;strokeColor=#6c8ebf;" vertex="1" parent="WIyWlLk6GJQsqaUBKTNV-1">
          <mxGeometry x="1486" y="345" width="120" height="30" as="geometry" />
        </mxCell>
        <mxCell id="hk-bhjeEYd5JpJ-YcEsF-31" value="Thread 4" style="rounded=0;whiteSpace=wrap;html=1;fontSize=16;fillColor=#dae8fc;strokeColor=#6c8ebf;" vertex="1" parent="WIyWlLk6GJQsqaUBKTNV-1">
          <mxGeometry x="1486" y="390" width="120" height="30" as="geometry" />
        </mxCell>
        <mxCell id="hk-bhjeEYd5JpJ-YcEsF-32" value="Thread m" style="rounded=0;whiteSpace=wrap;html=1;fontSize=16;fillColor=#dae8fc;strokeColor=#6c8ebf;" vertex="1" parent="WIyWlLk6GJQsqaUBKTNV-1">
          <mxGeometry x="1486" y="460" width="120" height="30" as="geometry" />
        </mxCell>
        <mxCell id="hk-bhjeEYd5JpJ-YcEsF-33" value="" style="endArrow=none;dashed=1;html=1;rounded=0;fontSize=16;exitX=0.5;exitY=0;exitDx=0;exitDy=0;entryX=0.5;entryY=1;entryDx=0;entryDy=0;" edge="1" parent="WIyWlLk6GJQsqaUBKTNV-1" source="hk-bhjeEYd5JpJ-YcEsF-32" target="hk-bhjeEYd5JpJ-YcEsF-31">
          <mxGeometry width="50" height="50" relative="1" as="geometry">
            <mxPoint x="1536" y="460" as="sourcePoint" />
            <mxPoint x="1586" y="410" as="targetPoint" />
            <Array as="points" />
          </mxGeometry>
        </mxCell>
        <mxCell id="hk-bhjeEYd5JpJ-YcEsF-36" value="blocking IO tasks" style="endArrow=classic;html=1;rounded=0;exitX=0.994;exitY=0.295;exitDx=0;exitDy=0;exitPerimeter=0;entryX=-0.011;entryY=0.307;entryDx=0;entryDy=0;entryPerimeter=0;" edge="1" parent="WIyWlLk6GJQsqaUBKTNV-1" source="hk-bhjeEYd5JpJ-YcEsF-8" target="hk-bhjeEYd5JpJ-YcEsF-25">
          <mxGeometry x="-0.0484" y="12" width="50" height="50" relative="1" as="geometry">
            <mxPoint x="1300.88" y="313.96000000000004" as="sourcePoint" />
            <mxPoint x="1366" y="340" as="targetPoint" />
            <mxPoint as="offset" />
          </mxGeometry>
        </mxCell>
        <mxCell id="hk-bhjeEYd5JpJ-YcEsF-37" value="&lt;font style=&quot;font-size: 12px&quot;&gt;response via callbacks&lt;/font&gt;" style="endArrow=classic;html=1;rounded=0;fontSize=16;exitX=-0.022;exitY=0.407;exitDx=0;exitDy=0;exitPerimeter=0;" edge="1" parent="WIyWlLk6GJQsqaUBKTNV-1" source="hk-bhjeEYd5JpJ-YcEsF-25">
          <mxGeometry x="0.0415" y="10" width="50" height="50" relative="1" as="geometry">
            <mxPoint x="1376" y="320" as="sourcePoint" />
            <mxPoint x="1306" y="350" as="targetPoint" />
            <mxPoint as="offset" />
          </mxGeometry>
        </mxCell>
        <mxCell id="hk-bhjeEYd5JpJ-YcEsF-38" value="" style="rounded=1;whiteSpace=wrap;html=1;fontSize=24;" vertex="1" parent="WIyWlLk6GJQsqaUBKTNV-1">
          <mxGeometry x="1746" y="230" width="180" height="270" as="geometry" />
        </mxCell>
        <mxCell id="hk-bhjeEYd5JpJ-YcEsF-39" value="Database" style="rounded=0;whiteSpace=wrap;html=1;fontSize=16;fillColor=#ffe6cc;strokeColor=#d79b00;" vertex="1" parent="WIyWlLk6GJQsqaUBKTNV-1">
          <mxGeometry x="1776" y="260" width="120" height="30" as="geometry" />
        </mxCell>
        <mxCell id="hk-bhjeEYd5JpJ-YcEsF-40" value="" style="endArrow=classic;html=1;rounded=0;" edge="1" parent="WIyWlLk6GJQsqaUBKTNV-1">
          <mxGeometry x="-0.0484" y="12" width="50" height="50" relative="1" as="geometry">
            <mxPoint x="1636" y="321" as="sourcePoint" />
            <mxPoint x="1746" y="321" as="targetPoint" />
            <mxPoint as="offset" />
          </mxGeometry>
        </mxCell>
        <mxCell id="hk-bhjeEYd5JpJ-YcEsF-41" value="" style="endArrow=classic;html=1;rounded=0;fontSize=16;" edge="1" parent="WIyWlLk6GJQsqaUBKTNV-1">
          <mxGeometry x="0.0415" y="10" width="50" height="50" relative="1" as="geometry">
            <mxPoint x="1746" y="350" as="sourcePoint" />
            <mxPoint x="1636" y="350" as="targetPoint" />
            <mxPoint as="offset" />
          </mxGeometry>
        </mxCell>
        <mxCell id="hk-bhjeEYd5JpJ-YcEsF-42" value="File system" style="rounded=0;whiteSpace=wrap;html=1;fontSize=16;fillColor=#ffe6cc;strokeColor=#d79b00;" vertex="1" parent="WIyWlLk6GJQsqaUBKTNV-1">
          <mxGeometry x="1776" y="310" width="120" height="30" as="geometry" />
        </mxCell>
        <mxCell id="hk-bhjeEYd5JpJ-YcEsF-43" value="Network" style="rounded=0;whiteSpace=wrap;html=1;fontSize=16;fillColor=#ffe6cc;strokeColor=#d79b00;" vertex="1" parent="WIyWlLk6GJQsqaUBKTNV-1">
          <mxGeometry x="1776" y="360" width="120" height="30" as="geometry" />
        </mxCell>
        <mxCell id="hk-bhjeEYd5JpJ-YcEsF-44" value="others" style="rounded=0;whiteSpace=wrap;html=1;fontSize=16;fillColor=#ffe6cc;strokeColor=#d79b00;" vertex="1" parent="WIyWlLk6GJQsqaUBKTNV-1">
          <mxGeometry x="1776" y="450" width="120" height="30" as="geometry" />
        </mxCell>
        <mxCell id="hk-bhjeEYd5JpJ-YcEsF-45" value="" style="endArrow=none;dashed=1;html=1;rounded=0;fontSize=16;entryX=0.5;entryY=1;entryDx=0;entryDy=0;exitX=0.5;exitY=0;exitDx=0;exitDy=0;" edge="1" parent="WIyWlLk6GJQsqaUBKTNV-1" source="hk-bhjeEYd5JpJ-YcEsF-44" target="hk-bhjeEYd5JpJ-YcEsF-43">
          <mxGeometry width="50" height="50" relative="1" as="geometry">
            <mxPoint x="1573" y="480" as="sourcePoint" />
            <mxPoint x="1573" y="430" as="targetPoint" />
            <Array as="points">
              <mxPoint x="1836" y="420" />
            </Array>
          </mxGeometry>
        </mxCell>
        <object label="Stack" id="hk-bhjeEYd5JpJ-YcEsF-46">
          <mxCell style="swimlane;fontStyle=1;childLayout=stackLayout;horizontal=1;startSize=30;horizontalStack=0;resizeParent=1;resizeParentMax=0;resizeLast=0;collapsible=1;marginBottom=0;fontSize=18;flipH=1;fillColor=#fff2cc;strokeColor=#d6b656;" vertex="1" parent="WIyWlLk6GJQsqaUBKTNV-1">
            <mxGeometry x="600" y="110" width="145" height="410" as="geometry">
              <mxRectangle x="125" y="130" width="60" height="30" as="alternateBounds" />
            </mxGeometry>
          </mxCell>
        </object>
        <mxCell id="hk-bhjeEYd5JpJ-YcEsF-80" value="&lt;span style=&quot;font-size: 10px ; font-weight: 400&quot;&gt;&amp;nbsp;&amp;nbsp;&lt;/span&gt;" style="text;html=1;strokeColor=none;fillColor=none;align=center;verticalAlign=middle;whiteSpace=wrap;rounded=0;fontSize=12;fontStyle=1" vertex="1" parent="hk-bhjeEYd5JpJ-YcEsF-46">
          <mxGeometry y="30" width="145" height="230" as="geometry" />
        </mxCell>
        <mxCell id="hk-bhjeEYd5JpJ-YcEsF-82" value="&lt;span style=&quot;font-size: 10px ; font-weight: 400&quot;&gt;function called&lt;/span&gt;" style="text;html=1;strokeColor=none;fillColor=none;align=center;verticalAlign=middle;whiteSpace=wrap;rounded=0;fontSize=12;fontStyle=1" vertex="1" parent="hk-bhjeEYd5JpJ-YcEsF-46">
          <mxGeometry y="260" width="145" height="30" as="geometry" />
        </mxCell>
        <mxCell id="hk-bhjeEYd5JpJ-YcEsF-81" value="&lt;font&gt;&lt;span style=&quot;font-size: 10px ; font-weight: 400&quot;&gt;primitive&lt;/span&gt;&lt;span style=&quot;font-size: 10px ; font-weight: normal&quot;&gt;&amp;nbsp;values&lt;/span&gt;&lt;/font&gt;" style="text;html=1;strokeColor=none;fillColor=none;align=center;verticalAlign=middle;whiteSpace=wrap;rounded=0;fontSize=12;fontStyle=1" vertex="1" parent="hk-bhjeEYd5JpJ-YcEsF-46">
          <mxGeometry y="290" width="145" height="30" as="geometry" />
        </mxCell>
        <mxCell id="hk-bhjeEYd5JpJ-YcEsF-78" value="&lt;span style=&quot;font-weight: normal&quot;&gt;&lt;font style=&quot;font-size: 10px&quot;&gt;Reference to object&lt;/font&gt;&lt;/span&gt;" style="text;html=1;strokeColor=none;fillColor=none;align=center;verticalAlign=middle;whiteSpace=wrap;rounded=0;fontSize=12;fontStyle=1" vertex="1" parent="hk-bhjeEYd5JpJ-YcEsF-46">
          <mxGeometry y="320" width="145" height="30" as="geometry" />
        </mxCell>
        <mxCell id="hk-bhjeEYd5JpJ-YcEsF-79" value="&lt;span style=&quot;font-weight: normal&quot;&gt;&lt;font style=&quot;font-size: 10px&quot;&gt;Reference to function&lt;/font&gt;&lt;/span&gt;" style="text;html=1;strokeColor=none;fillColor=none;align=center;verticalAlign=middle;whiteSpace=wrap;rounded=0;fontSize=12;fontStyle=1" vertex="1" parent="hk-bhjeEYd5JpJ-YcEsF-46">
          <mxGeometry y="350" width="145" height="30" as="geometry" />
        </mxCell>
        <mxCell id="hk-bhjeEYd5JpJ-YcEsF-57" value="&lt;span style=&quot;font-weight: normal&quot;&gt;&lt;font style=&quot;font-size: 10px&quot;&gt;Global frame - Global scope&lt;/font&gt;&lt;/span&gt;" style="text;html=1;strokeColor=none;fillColor=none;align=center;verticalAlign=middle;whiteSpace=wrap;rounded=0;fontSize=12;fontStyle=1" vertex="1" parent="hk-bhjeEYd5JpJ-YcEsF-46">
          <mxGeometry y="380" width="145" height="30" as="geometry" />
        </mxCell>
        <mxCell id="hk-bhjeEYd5JpJ-YcEsF-53" value="" style="rounded=0;whiteSpace=wrap;html=1;fontSize=12;" vertex="1" parent="WIyWlLk6GJQsqaUBKTNV-1">
          <mxGeometry x="190" y="110" width="390" height="460" as="geometry" />
        </mxCell>
        <mxCell id="hk-bhjeEYd5JpJ-YcEsF-24" value="V8 engine" style="text;html=1;strokeColor=none;fillColor=none;align=center;verticalAlign=middle;whiteSpace=wrap;rounded=0;fontSize=24;" vertex="1" parent="WIyWlLk6GJQsqaUBKTNV-1">
          <mxGeometry x="530" y="50" width="170" height="30" as="geometry" />
        </mxCell>
        <mxCell id="hk-bhjeEYd5JpJ-YcEsF-58" value="" style="rounded=0;whiteSpace=wrap;html=1;fontSize=12;fillColor=#f5f5f5;fontColor=#333333;strokeColor=#666666;" vertex="1" parent="WIyWlLk6GJQsqaUBKTNV-1">
          <mxGeometry x="200" y="162.5" width="370" height="115" as="geometry" />
        </mxCell>
        <mxCell id="hk-bhjeEYd5JpJ-YcEsF-59" value="" style="rounded=0;whiteSpace=wrap;html=1;fontSize=12;fillColor=#f5f5f5;fontColor=#333333;strokeColor=#666666;" vertex="1" parent="WIyWlLk6GJQsqaUBKTNV-1">
          <mxGeometry x="200" y="295" width="370" height="115" as="geometry" />
        </mxCell>
        <mxCell id="hk-bhjeEYd5JpJ-YcEsF-60" value="Large object space" style="rounded=0;whiteSpace=wrap;html=1;fontSize=12;fillColor=#d5e8d4;strokeColor=#82b366;" vertex="1" parent="WIyWlLk6GJQsqaUBKTNV-1">
          <mxGeometry x="200" y="440" width="80" height="115" as="geometry" />
        </mxCell>
        <mxCell id="hk-bhjeEYd5JpJ-YcEsF-61" value="&lt;b&gt;&lt;font style=&quot;font-size: 18px&quot;&gt;Heap&lt;/font&gt;&lt;/b&gt;" style="text;html=1;strokeColor=none;fillColor=none;align=center;verticalAlign=middle;whiteSpace=wrap;rounded=0;fontSize=12;" vertex="1" parent="WIyWlLk6GJQsqaUBKTNV-1">
          <mxGeometry x="354" y="120" width="60" height="30" as="geometry" />
        </mxCell>
        <mxCell id="hk-bhjeEYd5JpJ-YcEsF-62" value="Code space" style="rounded=0;whiteSpace=wrap;html=1;fontSize=12;" vertex="1" parent="WIyWlLk6GJQsqaUBKTNV-1">
          <mxGeometry x="300" y="440" width="80" height="115" as="geometry" />
        </mxCell>
        <mxCell id="hk-bhjeEYd5JpJ-YcEsF-63" value="Cell space" style="rounded=0;whiteSpace=wrap;html=1;fontSize=12;fillColor=#f8cecc;strokeColor=#b85450;" vertex="1" parent="WIyWlLk6GJQsqaUBKTNV-1">
          <mxGeometry x="434" y="440" width="136" height="30" as="geometry" />
        </mxCell>
        <mxCell id="hk-bhjeEYd5JpJ-YcEsF-64" value="Property cell space" style="rounded=0;whiteSpace=wrap;html=1;fontSize=12;fillColor=#f8cecc;strokeColor=#b85450;" vertex="1" parent="WIyWlLk6GJQsqaUBKTNV-1">
          <mxGeometry x="434" y="480" width="136" height="30" as="geometry" />
        </mxCell>
        <mxCell id="hk-bhjeEYd5JpJ-YcEsF-66" value="Map space" style="rounded=0;whiteSpace=wrap;html=1;fontSize=12;fillColor=#f8cecc;strokeColor=#b85450;" vertex="1" parent="WIyWlLk6GJQsqaUBKTNV-1">
          <mxGeometry x="434" y="520" width="136" height="30" as="geometry" />
        </mxCell>
        <mxCell id="hk-bhjeEYd5JpJ-YcEsF-69" value="Semi space" style="rounded=0;whiteSpace=wrap;html=1;fontSize=18;fillColor=#d5e8d4;strokeColor=#82b366;" vertex="1" parent="WIyWlLk6GJQsqaUBKTNV-1">
          <mxGeometry x="220" y="175" width="160" height="60" as="geometry" />
        </mxCell>
        <mxCell id="hk-bhjeEYd5JpJ-YcEsF-71" value="Semi space" style="rounded=0;whiteSpace=wrap;html=1;fontSize=18;fillColor=#d5e8d4;strokeColor=#82b366;" vertex="1" parent="WIyWlLk6GJQsqaUBKTNV-1">
          <mxGeometry x="390" y="175" width="160" height="60" as="geometry" />
        </mxCell>
        <mxCell id="hk-bhjeEYd5JpJ-YcEsF-73" value="New Space(Young generation)" style="text;html=1;strokeColor=none;fillColor=none;align=center;verticalAlign=middle;whiteSpace=wrap;rounded=0;fontSize=18;" vertex="1" parent="WIyWlLk6GJQsqaUBKTNV-1">
          <mxGeometry x="250" y="247.5" width="260" height="30" as="geometry" />
        </mxCell>
        <mxCell id="hk-bhjeEYd5JpJ-YcEsF-74" value="Old Space(Old generation)" style="text;html=1;strokeColor=none;fillColor=none;align=center;verticalAlign=middle;whiteSpace=wrap;rounded=0;fontSize=18;" vertex="1" parent="WIyWlLk6GJQsqaUBKTNV-1">
          <mxGeometry x="240" y="375" width="260" height="30" as="geometry" />
        </mxCell>
        <mxCell id="hk-bhjeEYd5JpJ-YcEsF-75" value="Old pointer space" style="rounded=0;whiteSpace=wrap;html=1;fontSize=18;fillColor=#e1d5e7;strokeColor=#9673a6;" vertex="1" parent="WIyWlLk6GJQsqaUBKTNV-1">
          <mxGeometry x="220" y="310" width="160" height="60" as="geometry" />
        </mxCell>
        <mxCell id="hk-bhjeEYd5JpJ-YcEsF-76" value="Old data space" style="rounded=0;whiteSpace=wrap;html=1;fontSize=18;fillColor=#e1d5e7;strokeColor=#9673a6;" vertex="1" parent="WIyWlLk6GJQsqaUBKTNV-1">
          <mxGeometry x="390" y="310" width="160" height="60" as="geometry" />
        </mxCell>
        <mxCell id="hk-bhjeEYd5JpJ-YcEsF-83" value="&lt;h1&gt;&lt;pre style=&quot;box-sizing: border-box ; font-family: , &amp;#34;menlo&amp;#34; , &amp;#34;monaco&amp;#34; , &amp;#34;consolas&amp;#34; , &amp;#34;liberation mono&amp;#34; , &amp;#34;courier new&amp;#34; , monospace ; font-size: 14.4px ; margin-top: 0px ; margin-bottom: 1rem ; overflow: auto ; color: rgb(236 , 232 , 232) ; width: 499.594px ; padding: 7px ; background: rgb(51 , 63 , 72) ; border-radius: 8px ; line-height: 1.6 ; font-weight: 400&quot;&gt;&lt;span class=&quot;kd&quot; style=&quot;box-sizing: border-box ; color: rgb(139 , 233 , 253) ; font-style: italic&quot;&gt;class&lt;/span&gt; &lt;span class=&quot;nx&quot; style=&quot;box-sizing: border-box ; color: rgb(248 , 248 , 242)&quot;&gt;Employee&lt;/span&gt; &lt;span class=&quot;p&quot; style=&quot;box-sizing: border-box ; color: rgb(248 , 248 , 242)&quot;&gt;{&lt;/span&gt;&lt;br/&gt;  &lt;span class=&quot;kd&quot; style=&quot;box-sizing: border-box ; color: rgb(139 , 233 , 253) ; font-style: italic&quot;&gt;constructor&lt;/span&gt;&lt;span class=&quot;p&quot; style=&quot;box-sizing: border-box ; color: rgb(248 , 248 , 242)&quot;&gt;(&lt;/span&gt;&lt;span class=&quot;nx&quot; style=&quot;box-sizing: border-box ; color: rgb(248 , 248 , 242)&quot;&gt;name&lt;/span&gt;&lt;span class=&quot;p&quot; style=&quot;box-sizing: border-box ; color: rgb(248 , 248 , 242)&quot;&gt;,&lt;/span&gt; &lt;span class=&quot;nx&quot; style=&quot;box-sizing: border-box ; color: rgb(248 , 248 , 242)&quot;&gt;salary&lt;/span&gt;&lt;span class=&quot;p&quot; style=&quot;box-sizing: border-box ; color: rgb(248 , 248 , 242)&quot;&gt;,&lt;/span&gt; &lt;span class=&quot;nx&quot; style=&quot;box-sizing: border-box ; color: rgb(248 , 248 , 242)&quot;&gt;sales&lt;/span&gt;&lt;span class=&quot;p&quot; style=&quot;box-sizing: border-box ; color: rgb(248 , 248 , 242)&quot;&gt;)&lt;/span&gt; &lt;span class=&quot;p&quot; style=&quot;box-sizing: border-box ; color: rgb(248 , 248 , 242)&quot;&gt;{&lt;/span&gt;&lt;br/&gt;    &lt;span class=&quot;k&quot; style=&quot;box-sizing: border-box ; color: rgb(255 , 121 , 198)&quot;&gt;this&lt;/span&gt;&lt;span class=&quot;p&quot; style=&quot;box-sizing: border-box ; color: rgb(248 , 248 , 242)&quot;&gt;.&lt;/span&gt;&lt;span class=&quot;nx&quot; style=&quot;box-sizing: border-box ; color: rgb(248 , 248 , 242)&quot;&gt;name&lt;/span&gt; &lt;span class=&quot;o&quot; style=&quot;box-sizing: border-box ; color: rgb(255 , 121 , 198)&quot;&gt;=&lt;/span&gt; &lt;span class=&quot;nx&quot; style=&quot;box-sizing: border-box ; color: rgb(248 , 248 , 242)&quot;&gt;name&lt;/span&gt;&lt;span class=&quot;p&quot; style=&quot;box-sizing: border-box ; color: rgb(248 , 248 , 242)&quot;&gt;;&lt;/span&gt;&lt;br/&gt;    &lt;span class=&quot;k&quot; style=&quot;box-sizing: border-box ; color: rgb(255 , 121 , 198)&quot;&gt;this&lt;/span&gt;&lt;span class=&quot;p&quot; style=&quot;box-sizing: border-box ; color: rgb(248 , 248 , 242)&quot;&gt;.&lt;/span&gt;&lt;span class=&quot;nx&quot; style=&quot;box-sizing: border-box ; color: rgb(248 , 248 , 242)&quot;&gt;salary&lt;/span&gt; &lt;span class=&quot;o&quot; style=&quot;box-sizing: border-box ; color: rgb(255 , 121 , 198)&quot;&gt;=&lt;/span&gt; &lt;span class=&quot;nx&quot; style=&quot;box-sizing: border-box ; color: rgb(248 , 248 , 242)&quot;&gt;salary&lt;/span&gt;&lt;span class=&quot;p&quot; style=&quot;box-sizing: border-box ; color: rgb(248 , 248 , 242)&quot;&gt;;&lt;/span&gt;&lt;br/&gt;    &lt;span class=&quot;k&quot; style=&quot;box-sizing: border-box ; color: rgb(255 , 121 , 198)&quot;&gt;this&lt;/span&gt;&lt;span class=&quot;p&quot; style=&quot;box-sizing: border-box ; color: rgb(248 , 248 , 242)&quot;&gt;.&lt;/span&gt;&lt;span class=&quot;nx&quot; style=&quot;box-sizing: border-box ; color: rgb(248 , 248 , 242)&quot;&gt;sales&lt;/span&gt; &lt;span class=&quot;o&quot; style=&quot;box-sizing: border-box ; color: rgb(255 , 121 , 198)&quot;&gt;=&lt;/span&gt; &lt;span class=&quot;nx&quot; style=&quot;box-sizing: border-box ; color: rgb(248 , 248 , 242)&quot;&gt;sales&lt;/span&gt;&lt;span class=&quot;p&quot; style=&quot;box-sizing: border-box ; color: rgb(248 , 248 , 242)&quot;&gt;;&lt;/span&gt;&lt;br/&gt;  &lt;span class=&quot;p&quot; style=&quot;box-sizing: border-box ; color: rgb(248 , 248 , 242)&quot;&gt;}&lt;/span&gt;&lt;br/&gt;&lt;span class=&quot;p&quot; style=&quot;box-sizing: border-box ; color: rgb(248 , 248 , 242)&quot;&gt;}&lt;/span&gt;&lt;br/&gt;&lt;br/&gt;&lt;span class=&quot;kd&quot; style=&quot;box-sizing: border-box ; color: rgb(139 , 233 , 253) ; font-style: italic&quot;&gt;const&lt;/span&gt; &lt;span class=&quot;nx&quot; style=&quot;box-sizing: border-box ; color: rgb(248 , 248 , 242)&quot;&gt;BONUS_PERCENTAGE&lt;/span&gt; &lt;span class=&quot;o&quot; style=&quot;box-sizing: border-box ; color: rgb(255 , 121 , 198)&quot;&gt;=&lt;/span&gt; &lt;span class=&quot;mi&quot; style=&quot;box-sizing: border-box ; color: rgb(189 , 147 , 249)&quot;&gt;10&lt;/span&gt;&lt;span class=&quot;p&quot; style=&quot;box-sizing: border-box ; color: rgb(248 , 248 , 242)&quot;&gt;;&lt;/span&gt;&lt;br/&gt;&lt;br/&gt;&lt;span class=&quot;kd&quot; style=&quot;box-sizing: border-box ; color: rgb(139 , 233 , 253) ; font-style: italic&quot;&gt;function&lt;/span&gt; &lt;span class=&quot;nx&quot; style=&quot;box-sizing: border-box ; color: rgb(248 , 248 , 242)&quot;&gt;getBonusPercentage&lt;/span&gt;&lt;span class=&quot;p&quot; style=&quot;box-sizing: border-box ; color: rgb(248 , 248 , 242)&quot;&gt;(&lt;/span&gt;&lt;span class=&quot;nx&quot; style=&quot;box-sizing: border-box ; color: rgb(248 , 248 , 242)&quot;&gt;salary&lt;/span&gt;&lt;span class=&quot;p&quot; style=&quot;box-sizing: border-box ; color: rgb(248 , 248 , 242)&quot;&gt;)&lt;/span&gt; &lt;span class=&quot;p&quot; style=&quot;box-sizing: border-box ; color: rgb(248 , 248 , 242)&quot;&gt;{&lt;/span&gt;&lt;br/&gt;  &lt;span class=&quot;kd&quot; style=&quot;box-sizing: border-box ; color: rgb(139 , 233 , 253) ; font-style: italic&quot;&gt;const&lt;/span&gt; &lt;span class=&quot;nx&quot; style=&quot;box-sizing: border-box ; color: rgb(248 , 248 , 242)&quot;&gt;percentage&lt;/span&gt; &lt;span class=&quot;o&quot; style=&quot;box-sizing: border-box ; color: rgb(255 , 121 , 198)&quot;&gt;=&lt;/span&gt; &lt;span class=&quot;p&quot; style=&quot;box-sizing: border-box ; color: rgb(248 , 248 , 242)&quot;&gt;(&lt;/span&gt;&lt;span class=&quot;nx&quot; style=&quot;box-sizing: border-box ; color: rgb(248 , 248 , 242)&quot;&gt;salary&lt;/span&gt; &lt;span class=&quot;o&quot; style=&quot;box-sizing: border-box ; color: rgb(255 , 121 , 198)&quot;&gt;*&lt;/span&gt; &lt;span class=&quot;nx&quot; style=&quot;box-sizing: border-box ; color: rgb(248 , 248 , 242)&quot;&gt;BONUS_PERCENTAGE&lt;/span&gt;&lt;span class=&quot;p&quot; style=&quot;box-sizing: border-box ; color: rgb(248 , 248 , 242)&quot;&gt;)&lt;/span&gt; &lt;span class=&quot;o&quot; style=&quot;box-sizing: border-box ; color: rgb(255 , 121 , 198)&quot;&gt;/&lt;/span&gt; &lt;span class=&quot;mi&quot; style=&quot;box-sizing: border-box ; color: rgb(189 , 147 , 249)&quot;&gt;100&lt;/span&gt;&lt;span class=&quot;p&quot; style=&quot;box-sizing: border-box ; color: rgb(248 , 248 , 242)&quot;&gt;;&lt;/span&gt;&lt;br/&gt;  &lt;span class=&quot;k&quot; style=&quot;box-sizing: border-box ; color: rgb(255 , 121 , 198)&quot;&gt;return&lt;/span&gt; &lt;span class=&quot;nx&quot; style=&quot;box-sizing: border-box ; color: rgb(248 , 248 , 242)&quot;&gt;percentage&lt;/span&gt;&lt;span class=&quot;p&quot; style=&quot;box-sizing: border-box ; color: rgb(248 , 248 , 242)&quot;&gt;;&lt;/span&gt;&lt;br/&gt;&lt;span class=&quot;p&quot; style=&quot;box-sizing: border-box ; color: rgb(248 , 248 , 242)&quot;&gt;}&lt;/span&gt;&lt;br/&gt;&lt;br/&gt;&lt;span class=&quot;kd&quot; style=&quot;box-sizing: border-box ; color: rgb(139 , 233 , 253) ; font-style: italic&quot;&gt;function&lt;/span&gt; &lt;span class=&quot;nx&quot; style=&quot;box-sizing: border-box ; color: rgb(248 , 248 , 242)&quot;&gt;findEmployeeBonus&lt;/span&gt;&lt;span class=&quot;p&quot; style=&quot;box-sizing: border-box ; color: rgb(248 , 248 , 242)&quot;&gt;(&lt;/span&gt;&lt;span class=&quot;nx&quot; style=&quot;box-sizing: border-box ; color: rgb(248 , 248 , 242)&quot;&gt;salary&lt;/span&gt;&lt;span class=&quot;p&quot; style=&quot;box-sizing: border-box ; color: rgb(248 , 248 , 242)&quot;&gt;,&lt;/span&gt; &lt;span class=&quot;nx&quot; style=&quot;box-sizing: border-box ; color: rgb(248 , 248 , 242)&quot;&gt;noOfSales&lt;/span&gt;&lt;span class=&quot;p&quot; style=&quot;box-sizing: border-box ; color: rgb(248 , 248 , 242)&quot;&gt;)&lt;/span&gt; &lt;span class=&quot;p&quot; style=&quot;box-sizing: border-box ; color: rgb(248 , 248 , 242)&quot;&gt;{&lt;/span&gt;&lt;br/&gt;  &lt;span class=&quot;kd&quot; style=&quot;box-sizing: border-box ; color: rgb(139 , 233 , 253) ; font-style: italic&quot;&gt;const&lt;/span&gt; &lt;span class=&quot;nx&quot; style=&quot;box-sizing: border-box ; color: rgb(248 , 248 , 242)&quot;&gt;bonusPercentage&lt;/span&gt; &lt;span class=&quot;o&quot; style=&quot;box-sizing: border-box ; color: rgb(255 , 121 , 198)&quot;&gt;=&lt;/span&gt; &lt;span class=&quot;nx&quot; style=&quot;box-sizing: border-box ; color: rgb(248 , 248 , 242)&quot;&gt;getBonusPercentage&lt;/span&gt;&lt;span class=&quot;p&quot; style=&quot;box-sizing: border-box ; color: rgb(248 , 248 , 242)&quot;&gt;(&lt;/span&gt;&lt;span class=&quot;nx&quot; style=&quot;box-sizing: border-box ; color: rgb(248 , 248 , 242)&quot;&gt;salary&lt;/span&gt;&lt;span class=&quot;p&quot; style=&quot;box-sizing: border-box ; color: rgb(248 , 248 , 242)&quot;&gt;);&lt;/span&gt;&lt;br/&gt;  &lt;span class=&quot;kd&quot; style=&quot;box-sizing: border-box ; color: rgb(139 , 233 , 253) ; font-style: italic&quot;&gt;const&lt;/span&gt; &lt;span class=&quot;nx&quot; style=&quot;box-sizing: border-box ; color: rgb(248 , 248 , 242)&quot;&gt;bonus&lt;/span&gt; &lt;span class=&quot;o&quot; style=&quot;box-sizing: border-box ; color: rgb(255 , 121 , 198)&quot;&gt;=&lt;/span&gt; &lt;span class=&quot;nx&quot; style=&quot;box-sizing: border-box ; color: rgb(248 , 248 , 242)&quot;&gt;bonusPercentage&lt;/span&gt; &lt;span class=&quot;o&quot; style=&quot;box-sizing: border-box ; color: rgb(255 , 121 , 198)&quot;&gt;*&lt;/span&gt; &lt;span class=&quot;nx&quot; style=&quot;box-sizing: border-box ; color: rgb(248 , 248 , 242)&quot;&gt;noOfSales&lt;/span&gt;&lt;span class=&quot;p&quot; style=&quot;box-sizing: border-box ; color: rgb(248 , 248 , 242)&quot;&gt;;&lt;/span&gt;&lt;br/&gt;  &lt;span class=&quot;k&quot; style=&quot;box-sizing: border-box ; color: rgb(255 , 121 , 198)&quot;&gt;return&lt;/span&gt; &lt;span class=&quot;nx&quot; style=&quot;box-sizing: border-box ; color: rgb(248 , 248 , 242)&quot;&gt;bonus&lt;/span&gt;&lt;span class=&quot;p&quot; style=&quot;box-sizing: border-box ; color: rgb(248 , 248 , 242)&quot;&gt;;&lt;/span&gt;&lt;br/&gt;&lt;span class=&quot;p&quot; style=&quot;box-sizing: border-box ; color: rgb(248 , 248 , 242)&quot;&gt;}&lt;/span&gt;&lt;br/&gt;&lt;br/&gt;&lt;span class=&quot;kd&quot; style=&quot;box-sizing: border-box ; color: rgb(139 , 233 , 253) ; font-style: italic&quot;&gt;let&lt;/span&gt; &lt;span class=&quot;nx&quot; style=&quot;box-sizing: border-box ; color: rgb(248 , 248 , 242)&quot;&gt;john&lt;/span&gt; &lt;span class=&quot;o&quot; style=&quot;box-sizing: border-box ; color: rgb(255 , 121 , 198)&quot;&gt;=&lt;/span&gt; &lt;span class=&quot;k&quot; style=&quot;box-sizing: border-box ; color: rgb(255 , 121 , 198)&quot;&gt;new&lt;/span&gt; &lt;span class=&quot;nx&quot; style=&quot;box-sizing: border-box ; color: rgb(248 , 248 , 242)&quot;&gt;Employee&lt;/span&gt;&lt;span class=&quot;p&quot; style=&quot;box-sizing: border-box ; color: rgb(248 , 248 , 242)&quot;&gt;(&lt;/span&gt;&lt;span class=&quot;dl&quot; style=&quot;box-sizing: border-box ; color: rgb(241 , 250 , 140)&quot;&gt;&quot;&lt;/span&gt;&lt;span class=&quot;s2&quot; style=&quot;box-sizing: border-box ; color: rgb(241 , 250 , 140)&quot;&gt;John&lt;/span&gt;&lt;span class=&quot;dl&quot; style=&quot;box-sizing: border-box ; color: rgb(241 , 250 , 140)&quot;&gt;&quot;&lt;/span&gt;&lt;span class=&quot;p&quot; style=&quot;box-sizing: border-box ; color: rgb(248 , 248 , 242)&quot;&gt;,&lt;/span&gt; &lt;span class=&quot;mi&quot; style=&quot;box-sizing: border-box ; color: rgb(189 , 147 , 249)&quot;&gt;5000&lt;/span&gt;&lt;span class=&quot;p&quot; style=&quot;box-sizing: border-box ; color: rgb(248 , 248 , 242)&quot;&gt;,&lt;/span&gt; &lt;span class=&quot;mi&quot; style=&quot;box-sizing: border-box ; color: rgb(189 , 147 , 249)&quot;&gt;5&lt;/span&gt;&lt;span class=&quot;p&quot; style=&quot;box-sizing: border-box ; color: rgb(248 , 248 , 242)&quot;&gt;);&lt;/span&gt;&lt;br/&gt;&lt;span class=&quot;nx&quot; style=&quot;box-sizing: border-box ; color: rgb(248 , 248 , 242)&quot;&gt;john&lt;/span&gt;&lt;span class=&quot;p&quot; style=&quot;box-sizing: border-box ; color: rgb(248 , 248 , 242)&quot;&gt;.&lt;/span&gt;&lt;span class=&quot;nx&quot; style=&quot;box-sizing: border-box ; color: rgb(248 , 248 , 242)&quot;&gt;bonus&lt;/span&gt; &lt;span class=&quot;o&quot; style=&quot;box-sizing: border-box ; color: rgb(255 , 121 , 198)&quot;&gt;=&lt;/span&gt; &lt;span class=&quot;nx&quot; style=&quot;box-sizing: border-box ; color: rgb(248 , 248 , 242)&quot;&gt;findEmployeeBonus&lt;/span&gt;&lt;span class=&quot;p&quot; style=&quot;box-sizing: border-box ; color: rgb(248 , 248 , 242)&quot;&gt;(&lt;/span&gt;&lt;span class=&quot;nx&quot; style=&quot;box-sizing: border-box ; color: rgb(248 , 248 , 242)&quot;&gt;john&lt;/span&gt;&lt;span class=&quot;p&quot; style=&quot;box-sizing: border-box ; color: rgb(248 , 248 , 242)&quot;&gt;.&lt;/span&gt;&lt;span class=&quot;nx&quot; style=&quot;box-sizing: border-box ; color: rgb(248 , 248 , 242)&quot;&gt;salary&lt;/span&gt;&lt;span class=&quot;p&quot; style=&quot;box-sizing: border-box ; color: rgb(248 , 248 , 242)&quot;&gt;,&lt;/span&gt; &lt;span class=&quot;nx&quot; style=&quot;box-sizing: border-box ; color: rgb(248 , 248 , 242)&quot;&gt;john&lt;/span&gt;&lt;span class=&quot;p&quot; style=&quot;box-sizing: border-box ; color: rgb(248 , 248 , 242)&quot;&gt;.&lt;/span&gt;&lt;span class=&quot;nx&quot; style=&quot;box-sizing: border-box ; color: rgb(248 , 248 , 242)&quot;&gt;sales&lt;/span&gt;&lt;span class=&quot;p&quot; style=&quot;box-sizing: border-box ; color: rgb(248 , 248 , 242)&quot;&gt;);&lt;/span&gt;&lt;br/&gt;&lt;span class=&quot;nx&quot; style=&quot;box-sizing: border-box ; color: rgb(248 , 248 , 242)&quot;&gt;console&lt;/span&gt;&lt;span class=&quot;p&quot; style=&quot;box-sizing: border-box ; color: rgb(248 , 248 , 242)&quot;&gt;.&lt;/span&gt;&lt;span class=&quot;nx&quot; style=&quot;box-sizing: border-box ; color: rgb(248 , 248 , 242)&quot;&gt;log&lt;/span&gt;&lt;span class=&quot;p&quot; style=&quot;box-sizing: border-box ; color: rgb(248 , 248 , 242)&quot;&gt;(&lt;/span&gt;&lt;span class=&quot;nx&quot; style=&quot;box-sizing: border-box ; color: rgb(248 , 248 , 242)&quot;&gt;john&lt;/span&gt;&lt;span class=&quot;p&quot; style=&quot;box-sizing: border-box ; color: rgb(248 , 248 , 242)&quot;&gt;.&lt;/span&gt;&lt;span class=&quot;nx&quot; style=&quot;box-sizing: border-box ; color: rgb(248 , 248 , 242)&quot;&gt;bonus&lt;/span&gt;&lt;span class=&quot;p&quot; style=&quot;box-sizing: border-box ; color: rgb(248 , 248 , 242)&quot;&gt;);&lt;/span&gt;&lt;/pre&gt;&lt;/h1&gt;" style="text;html=1;strokeColor=none;fillColor=none;spacing=5;spacingTop=-20;whiteSpace=wrap;overflow=hidden;rounded=0;labelBackgroundColor=default;labelBorderColor=default;fontSize=8;" vertex="1" parent="WIyWlLk6GJQsqaUBKTNV-1">
          <mxGeometry x="139" y="1020" width="550" height="570" as="geometry" />
        </mxCell>
      </root>
    </mxGraphModel>
  </diagram>
</mxfile>
